<svg version="1.1" id="Layer_1" xmlns="http://www.w3.org/2000/svg" xmlns:xlink="http://www.w3.org/1999/xlink" x="0px" y="0px"
	 width="100%" viewBox="0 0 300 130" enable-background="new 0 0 300 130" xml:space="preserve">
<path fill="#FEFEFE" opacity="1.000000" stroke="none" 
	d="
M193.000000,131.000000 
	C128.666687,131.000000 64.833374,131.000000 1.000043,131.000000 
	C1.000029,87.666702 1.000029,44.333397 1.000014,1.000072 
	C100.999939,1.000048 200.999878,1.000048 300.999878,1.000024 
	C300.999908,44.333256 300.999908,87.666512 300.999939,130.999878 
	C265.166656,131.000000 229.333328,131.000000 193.000000,131.000000 
M276.192413,36.185188 
	C275.795776,35.973602 275.399170,35.762012 274.509277,35.208786 
	C273.723083,35.072723 272.936859,34.936665 271.691467,34.410862 
	C270.787109,34.561867 269.882782,34.712868 268.210632,34.925076 
	C265.006989,37.080032 261.803345,39.234985 258.796844,40.432083 
	C258.819611,38.454803 259.231171,36.378063 258.757843,34.527691 
	C258.266296,32.606136 256.918579,30.903591 255.096939,28.883430 
	C253.480804,28.980656 251.864655,29.077879 250.218445,29.176914 
	C249.859070,31.197056 249.553055,32.917236 249.176941,35.031460 
	C243.186417,34.255791 237.997162,35.175320 234.682846,40.140083 
	C231.595703,35.859505 227.754684,33.398167 221.432938,34.931366 
	C218.675751,36.123478 215.918579,37.315586 213.075745,37.693939 
	C210.772278,30.049133 201.686050,25.827158 195.274597,29.931225 
	C187.130997,32.318470 183.356400,37.044907 184.097412,43.926945 
	C184.784409,50.307281 189.722580,54.509895 197.745590,55.386745 
	C203.818680,56.496910 208.131653,53.417423 212.468597,49.980850 
	C214.835068,53.398666 218.003281,55.257843 222.829605,55.350811 
	C228.322220,56.072857 232.365631,53.983994 235.415939,49.727200 
	C238.175735,51.511143 240.737701,54.191833 243.744705,54.855206 
	C247.625076,55.711250 251.861420,54.953640 256.740356,54.968590 
	C257.359375,52.845177 257.978394,50.721764 259.248901,48.964439 
	C261.674286,52.315548 264.439362,55.130199 269.519409,55.558510 
	C271.053253,55.436714 272.587097,55.314919 274.530334,55.124004 
	C274.530334,55.124004 274.921631,54.985237 275.674286,55.002354 
	C279.726349,53.814262 282.402893,51.577316 282.148285,46.083618 
	C282.339264,39.501110 281.263580,37.808369 276.068604,36.780239 
	C276.068604,36.780239 276.178040,36.872417 276.192413,36.185188 
M161.068634,67.012230 
	C160.471497,67.435974 159.716568,67.746338 159.312469,68.308769 
	C158.627075,69.262756 158.162979,70.375755 157.605865,71.421913 
	C156.893494,70.485649 156.313309,69.391380 155.433487,68.655258 
	C154.452774,67.834732 153.199600,67.339844 151.471619,66.370232 
	C151.471619,71.137024 151.471619,74.895782 151.471619,78.654533 
	C151.879166,78.945755 152.286728,79.236977 152.694275,79.528198 
	C153.670288,78.361504 154.629883,77.180519 155.628174,76.033211 
	C156.284424,75.279007 156.996536,74.573395 157.683655,73.846031 
	C158.181686,74.569756 158.623718,75.341278 159.190964,76.005920 
	C160.029861,76.988899 160.957703,77.895973 162.661118,78.839996 
	C164.270126,74.817169 165.445770,70.824547 161.068634,67.012230 
M140.590439,34.941895 
	C137.746536,36.712936 134.902634,38.483978 131.449890,39.708019 
	C128.269485,35.955536 124.603325,33.437531 118.547112,34.926685 
	C116.363869,35.621159 114.180626,36.315632 111.396187,36.697853 
	C110.616562,35.669739 109.878242,34.606987 109.050285,33.619392 
	C105.073402,28.875746 97.739944,27.141882 92.289192,29.978991 
	C84.750557,32.493191 81.288918,36.631989 81.502769,42.875404 
	C81.717697,49.150066 85.302979,52.984882 93.523239,55.711628 
	C95.532875,56.027893 97.838326,57.126617 99.492035,56.501423 
	C103.207542,55.096760 106.599625,52.836567 110.700630,51.309151 
	C114.343842,55.528721 119.050949,55.615005 124.722031,54.736816 
	C127.079399,52.928562 129.436768,51.120308 132.265396,50.017803 
	C134.890015,51.706242 137.514618,53.394676 140.740067,55.514557 
	C146.644501,57.219513 150.935394,54.174351 155.583328,51.158707 
	C158.416351,52.470646 161.136734,54.291466 164.114258,54.950653 
	C167.060928,55.603012 170.267136,55.083080 173.861969,55.380878 
	C177.004166,55.848969 178.486542,54.539639 178.455658,51.319519 
	C178.395752,45.075531 178.449265,38.830532 178.432693,32.586014 
	C178.423355,29.066484 176.721298,27.829771 172.456238,28.906914 
	C167.238861,28.110800 169.757660,32.908192 168.305573,34.765453 
	C158.280136,35.315121 158.280136,35.315121 154.175293,39.944576 
	C150.731827,36.217640 146.996323,33.237000 140.590439,34.941895 
M53.036613,107.038918 
	C56.739033,104.840500 60.441448,102.642082 64.832283,100.216209 
	C68.268761,98.169029 71.705231,96.121857 75.824097,93.964485 
	C85.182564,90.886909 88.995850,84.595863 87.038712,74.842827 
	C86.751495,73.411545 86.765594,71.828651 87.038841,70.391701 
	C88.276459,63.883499 84.903244,60.631813 78.780144,58.371635 
	C74.872726,56.195168 70.965317,54.018700 66.634583,51.323925 
	C61.134808,48.198536 55.635033,45.073147 50.303871,41.284851 
	C54.432270,38.824219 58.560669,36.363586 63.357880,33.504322 
	C58.322548,30.307697 54.020996,27.576902 49.309124,24.585621 
	C49.309124,31.122818 49.309124,36.572086 49.129887,42.939438 
	C49.110775,49.211956 48.923454,55.491516 49.185768,61.752247 
	C49.255047,63.405804 50.291233,65.640869 51.607990,66.505562 
	C55.859447,69.297447 60.448448,71.575325 65.119827,74.691750 
	C64.377510,75.690002 63.635193,76.688263 62.216736,77.905663 
	C60.137707,78.951385 58.058678,79.997108 55.548874,80.519699 
	C47.358612,76.033859 39.168346,71.548019 30.570765,66.515564 
	C29.827868,65.988052 29.084972,65.460541 28.727221,64.424927 
	C28.846577,64.023071 28.965933,63.621220 29.813812,63.134830 
	C34.309361,60.744537 38.873646,58.470482 43.251713,55.881516 
	C44.334671,55.241119 45.433075,53.596142 45.467648,52.382843 
	C45.673553,45.156532 45.569466,37.921394 45.569466,29.999392 
	C39.189648,33.914158 33.561611,37.367622 27.225677,40.956188 
	C24.234980,42.633945 21.147371,44.162506 18.277645,46.026505 
	C14.528199,48.461914 10.951162,51.162750 7.059085,54.563927 
	C7.038654,61.054218 6.884153,67.548904 7.096685,74.031555 
	C7.146749,75.558594 8.027818,77.730827 9.219404,78.436668 
	C15.936931,82.415848 22.865826,86.038185 30.004305,90.290009 
	C31.634422,91.209351 33.264542,92.128693 34.943958,93.977242 
	C34.943958,101.521202 34.943958,109.065170 34.943958,117.745270 
	C41.417881,113.818146 46.898033,110.493843 53.036613,107.038918 
M145.275925,67.049622 
	C144.533340,68.336906 143.522964,69.545303 143.114761,70.931084 
	C142.583588,72.734383 142.530624,74.678551 142.250809,76.715340 
	C136.911331,74.888145 143.163986,67.014214 135.341888,67.088753 
	C135.711609,71.169601 133.113632,75.936470 137.764267,78.369125 
	C139.849731,79.459976 145.241882,78.732849 145.719269,77.504150 
	C146.896179,74.475021 146.097794,70.678429 145.275925,67.049622 
M179.506348,73.124153 
	C179.070908,70.604263 181.084427,66.303299 175.489532,67.298820 
	C175.089737,70.556801 174.722015,73.553284 174.329758,76.749786 
	C168.921600,74.859413 175.176788,66.979332 167.838760,67.095428 
	C166.241882,74.910530 167.160629,78.214203 171.078003,79.087440 
	C175.569534,80.088669 178.109451,78.538017 179.506348,73.124153 
M119.025856,68.772705 
	C119.025856,72.048782 119.025856,75.324852 119.025856,79.076920 
	C121.795883,79.076920 124.110779,79.356659 126.328171,79.010948 
	C129.605042,78.500061 131.765991,76.575905 131.741867,72.969612 
	C131.717758,69.365791 129.525650,67.352234 126.253044,67.020653 
	C123.940628,66.786362 121.528259,67.538589 119.025856,68.772705 
M183.008011,75.348724 
	C183.180069,76.457924 183.292984,78.515419 183.533249,78.530388 
	C186.078796,78.689095 188.971436,79.256592 191.136337,78.292313 
	C195.545822,76.328217 190.231674,72.477997 192.011948,69.621696 
	C192.096817,69.485527 189.919022,67.430595 188.571823,67.041252 
	C186.949753,66.572464 185.088776,66.930328 183.007401,66.930328 
	C183.007401,69.829514 183.007401,72.121788 183.008011,75.348724 
M66.672691,47.504089 
	C66.672691,43.700245 66.672691,39.896400 66.672691,35.302261 
	C62.533085,37.459347 59.134567,39.230259 54.470921,41.660412 
	C59.088593,44.116688 62.496861,45.929646 66.672691,47.504089 
M110.805779,76.835632 
	C111.320107,75.257423 111.834435,73.679214 112.423035,71.873100 
	C112.381607,71.845901 111.145218,71.034195 109.463699,69.930252 
	C111.728378,69.060631 113.232422,68.483086 114.736465,67.905540 
	C114.663544,67.637123 114.590614,67.368698 114.517685,67.100281 
	C111.879478,67.100281 109.241264,67.100281 106.551971,67.100281 
	C106.551971,71.276352 106.551971,74.993858 106.551971,78.806709 
	C109.449409,78.806709 112.017212,78.806709 114.585022,78.806709 
	C114.613930,78.506760 114.642845,78.206818 114.671753,77.906868 
	C113.632706,77.599915 112.593666,77.292953 110.805779,76.835632 
M58.130486,24.240793 
	C60.546680,26.658001 62.962872,29.075211 65.379066,31.492418 
	C65.687775,31.108414 65.996483,30.724409 66.305191,30.340406 
	C66.305191,27.050383 66.305191,23.760361 66.305191,20.142757 
	C63.428989,21.577980 61.074249,22.752995 58.130486,24.240793 
z"/>
<path fill="#B34DB6" opacity="1.000000" stroke="none" 
	d="
M28.342075,64.933029 
	C29.084972,65.460541 29.827868,65.988052 30.769524,67.207062 
	C30.553074,75.193100 30.137869,82.487640 29.722664,89.782173 
	C22.865826,86.038185 15.936931,82.415848 9.219404,78.436668 
	C8.027818,77.730827 7.146749,75.558594 7.096685,74.031555 
	C6.884153,67.548904 7.038654,61.054218 7.564305,54.300766 
	C14.827042,57.669415 21.584558,61.301224 28.342075,64.933029 
z"/>
<path fill="#B44EB7" opacity="1.000000" stroke="none" 
	d="
M50.135258,41.947758 
	C55.635033,45.073147 61.134808,48.198536 66.827904,52.063492 
	C67.014130,57.946980 67.195549,63.101608 66.904510,68.229416 
	C66.792580,70.201477 65.604881,72.112480 64.907356,74.051300 
	C60.448448,71.575325 55.859447,69.297447 51.607990,66.505562 
	C50.291233,65.640869 49.255047,63.405804 49.185768,61.752247 
	C48.923454,55.491516 49.110775,49.211956 49.426643,42.469746 
	C49.723396,42.000053 50.135258,41.947758 50.135258,41.947758 
z"/>
<path fill="#B74DBC" opacity="1.000000" stroke="none" 
	d="
M65.013596,74.371529 
	C65.604881,72.112480 66.792580,70.201477 66.904510,68.229416 
	C67.195549,63.101608 67.014130,57.946980 67.039566,52.322643 
	C70.965317,54.018700 74.872726,56.195168 78.589897,58.736855 
	C76.607544,65.097290 74.324120,71.001152 73.186729,77.118095 
	C72.353508,81.599152 72.897522,86.366203 73.122246,90.991478 
	C73.173645,92.049423 74.436440,93.048500 75.141708,94.074677 
	C71.705231,96.121857 68.268761,98.169029 64.412460,99.877380 
	C63.626045,92.254547 63.259460,84.970528 62.892876,77.686516 
	C63.635193,76.688263 64.377510,75.690002 65.013596,74.371529 
z"/>
<path fill="#9F41A4" opacity="1.000000" stroke="none" 
	d="
M27.933577,40.821083 
	C33.561611,37.367622 39.189648,33.914158 45.569466,29.999392 
	C45.569466,37.921394 45.673553,45.156532 45.467648,52.382843 
	C45.433075,53.596142 44.334671,55.241119 43.251713,55.881516 
	C38.873646,58.470482 34.309361,60.744537 29.423433,62.693672 
	C28.666561,55.108707 28.300068,47.964893 27.933577,40.821083 
z"/>
<path fill="#B94BBE" opacity="1.000000" stroke="none" 
	d="
M75.482903,94.019577 
	C74.436440,93.048500 73.173645,92.049423 73.122246,90.991478 
	C72.897522,86.366203 72.353508,81.599152 73.186729,77.118095 
	C74.324120,71.001152 76.607544,65.097290 78.803223,59.007809 
	C84.903244,60.631813 88.276459,63.883499 87.038841,70.391701 
	C86.765594,71.828651 86.751495,73.411545 87.038712,74.842827 
	C88.995850,84.595863 85.182564,90.886909 75.482903,94.019577 
z"/>
<path fill="#B84FBD" opacity="1.000000" stroke="none" 
	d="
M29.863483,90.036087 
	C30.137869,82.487640 30.553074,75.193100 30.973183,67.480377 
	C39.168346,71.548019 47.358612,76.033859 55.565269,81.049118 
	C51.720203,84.051353 47.858742,86.524178 43.639652,89.033661 
	C40.486233,90.396233 37.690445,91.722137 34.894657,93.048042 
	C33.264542,92.128693 31.634422,91.209351 29.863483,90.036087 
z"/>
<path fill="#A44AB3" opacity="1.000000" stroke="none" 
	d="
M255.944473,54.890945 
	C251.861420,54.953640 247.625076,55.711250 243.744705,54.855206 
	C240.737701,54.191833 238.175735,51.511143 235.210388,49.053181 
	C234.992828,45.880939 234.980835,43.382721 234.968842,40.884499 
	C237.997162,35.175320 243.186417,34.255791 249.176941,35.031460 
	C249.553055,32.917236 249.859070,31.197056 250.218445,29.176914 
	C251.864655,29.077879 253.480804,28.980656 255.535522,29.454548 
	C255.964233,38.314091 255.954346,46.602520 255.944473,54.890945 
M245.536240,40.349472 
	C241.975174,40.470444 240.620621,42.495037 241.031937,45.810379 
	C241.393646,48.725861 243.023270,50.055923 246.752182,49.093700 
	C251.156281,45.779072 250.951630,43.390453 245.536240,40.349472 
z"/>
<path fill="#EA4E4E" opacity="1.000000" stroke="none" 
	d="
M154.760849,40.292389 
	C158.280136,35.315121 158.280136,35.315121 168.305573,34.765453 
	C169.757660,32.908192 167.238861,28.110800 173.263062,29.047661 
	C174.261887,37.586163 174.464005,45.983761 174.591309,54.382496 
	C174.594727,54.607841 173.788284,54.845463 173.359497,55.077362 
	C170.267136,55.083080 167.060928,55.603012 164.114258,54.950653 
	C161.136734,54.291466 158.416351,52.470646 155.294312,50.581062 
	C154.618912,48.950752 154.232498,47.898094 153.875977,46.457893 
	C154.190857,44.144367 154.475861,42.218380 154.760849,40.292389 
M163.201920,49.438732 
	C163.793030,49.350803 164.384125,49.262871 165.719360,49.014389 
	C166.754364,47.468491 168.578995,45.917862 168.569778,44.378216 
	C168.562637,43.187386 166.259064,42.010311 164.660995,40.392464 
	C164.117645,40.620472 163.574295,40.848480 163.015625,41.002438 
	C163.015625,41.002438 163.071747,41.053120 162.310257,41.051651 
	C158.807648,44.479099 159.033981,46.831684 163.014664,48.998528 
	C163.014664,48.998528 163.031296,48.925270 163.201920,49.438732 
z"/>
<path fill="#B24DB5" opacity="1.000000" stroke="none" 
	d="
M34.919308,93.512642 
	C37.690445,91.722137 40.486233,90.396233 44.077827,89.034744 
	C46.445099,89.112038 48.016563,89.224907 50.000809,89.367432 
	C50.000809,94.257011 49.812248,98.682976 50.109982,103.075981 
	C50.205490,104.485268 51.585728,105.807495 52.378185,107.169548 
	C46.898033,110.493843 41.417881,113.818146 34.943958,117.745270 
	C34.943958,109.065170 34.943958,101.521202 34.919308,93.512642 
z"/>
<path fill="#E35252" opacity="1.000000" stroke="none" 
	d="
M93.024689,55.199223 
	C85.302979,52.984882 81.717697,49.150066 81.502769,42.875404 
	C81.288918,36.631989 84.750557,32.493191 93.081146,29.949623 
	C102.181038,29.966089 106.088264,31.988678 107.757248,37.328793 
	C103.426422,39.138340 99.610878,37.930855 95.710075,35.362717 
	C94.646301,35.487785 93.826637,35.769028 93.007019,36.023209 
	C93.007050,35.996143 93.048897,36.030479 92.664261,35.990337 
	C87.885880,36.854961 87.835060,40.310741 88.069672,43.620197 
	C88.275810,46.527824 89.218712,49.215652 93.027924,48.986679 
	C93.007011,49.003841 93.006989,48.949741 93.127838,49.218204 
	C94.150536,49.484734 95.052376,49.482800 96.330734,49.330009 
	C100.790771,48.419701 104.874306,47.660252 108.981323,47.202667 
	C109.012016,47.908131 109.019226,48.311726 108.700867,48.862247 
	C104.494041,54.136703 99.013596,55.298428 93.024689,55.199223 
z"/>
<path fill="#A651B4" opacity="1.000000" stroke="none" 
	d="
M258.599701,41.389938 
	C261.803345,39.234985 265.006989,37.080032 268.987427,34.963608 
	C270.559692,34.934963 271.355164,34.867783 272.150665,34.800606 
	C272.936859,34.936665 273.723083,35.072723 274.840424,35.688789 
	C275.507050,36.403332 275.842560,36.637875 276.178040,36.872417 
	C276.178040,36.872417 276.068604,36.780239 276.197327,37.106377 
	C277.228638,40.602909 278.131226,43.773300 278.575806,46.980438 
	C274.908234,47.017181 271.698639,47.017181 268.489075,47.017181 
	C268.504333,47.680893 268.519562,48.344604 268.534821,49.008316 
	C271.969666,49.008316 275.404480,49.008316 279.880554,49.008316 
	C277.631287,51.719330 276.276459,53.352283 274.921631,54.985237 
	C274.921631,54.985237 274.530334,55.124004 273.901428,55.068764 
	C271.843872,55.052502 270.415192,55.091488 268.986542,55.130470 
	C264.439362,55.130199 261.674286,52.315548 258.734344,48.518341 
	C258.346405,45.844807 258.473053,43.617371 258.599701,41.389938 
z"/>
<path fill="#EB4D4D" opacity="1.000000" stroke="none" 
	d="
M109.026436,48.715317 
	C109.019226,48.311726 109.012016,47.908131 108.928848,46.799637 
	C109.901047,43.066525 110.949211,40.038311 111.997383,37.010101 
	C114.180626,36.315632 116.363869,35.621159 119.282135,34.988968 
	C125.381187,35.989758 128.220535,39.106098 129.048462,44.565044 
	C129.773361,49.344788 127.462349,52.228271 124.006989,54.734180 
	C119.050949,55.615005 114.343842,55.528721 110.358292,50.808292 
	C109.686119,49.776726 109.356277,49.246021 109.026436,48.715317 
z"/>
<path fill="#EB4E4E" opacity="1.000000" stroke="none" 
	d="
M132.058746,40.255020 
	C134.902634,38.483978 137.746536,36.712936 141.343842,34.987946 
	C149.182541,36.469063 151.253189,39.227272 150.606293,46.958115 
	C148.641388,46.991291 147.094193,46.991291 145.546997,46.991291 
	C145.535629,47.267422 145.524261,47.543556 145.512878,47.819687 
	C147.182632,48.064018 148.852371,48.308350 151.040436,48.628525 
	C148.690765,53.742313 144.819077,55.087391 140.139236,55.083111 
	C137.514618,53.394676 134.890015,51.706242 131.855438,49.550335 
	C131.649918,46.140251 131.854324,43.197639 132.058746,40.255020 
z"/>
<path fill="#B54CB8" opacity="1.000000" stroke="none" 
	d="
M52.707397,107.104233 
	C51.585728,105.807495 50.205490,104.485268 50.109982,103.075981 
	C49.812248,98.682976 50.000809,94.257011 50.000809,89.367432 
	C48.016563,89.224907 46.445099,89.112038 44.435463,88.998077 
	C47.858742,86.524178 51.720203,84.051353 55.780655,81.310684 
	C58.058678,79.997108 60.137707,78.951385 62.554806,77.796089 
	C63.259460,84.970528 63.626045,92.254547 64.068253,99.991112 
	C60.441448,102.642082 56.739033,104.840500 52.707397,107.104233 
z"/>
<path fill="#A64AB5" opacity="1.000000" stroke="none" 
	d="
M197.144913,55.030952 
	C189.722580,54.509895 184.784409,50.307281 184.097412,43.926945 
	C183.356400,37.044907 187.130997,32.318470 196.053558,29.913961 
	C204.565369,30.272663 208.526932,32.897579 208.585587,38.877819 
	C204.791367,37.675922 201.353714,36.586975 197.668854,35.357574 
	C196.624207,35.507919 195.826782,35.798729 195.056412,36.063629 
	C195.083481,36.037724 195.125580,36.099716 194.754288,36.080559 
	C192.943207,38.414597 190.402985,40.769646 190.406952,43.120411 
	C190.410217,45.049519 193.438736,46.973515 195.105225,48.930790 
	C195.084167,48.961800 195.029358,48.910648 195.160736,49.166908 
	C196.166733,49.449383 197.041351,49.475601 198.302307,49.384254 
	C202.089310,48.523376 205.489975,47.780060 208.793304,47.358261 
	C206.525299,52.769482 202.151855,54.397945 197.144913,55.030952 
z"/>
<path fill="#A442A8" opacity="1.000000" stroke="none" 
	d="
M27.579628,40.888634 
	C28.300068,47.964893 28.666561,55.108707 29.059172,62.735943 
	C28.965933,63.621220 28.846577,64.023071 28.534647,64.678978 
	C21.584558,61.301224 14.827042,57.669415 7.684739,53.893501 
	C10.951162,51.162750 14.528199,48.461914 18.277645,46.026505 
	C21.147371,44.162506 24.234980,42.633945 27.579628,40.888634 
z"/>
<path fill="#A549B5" opacity="1.000000" stroke="none" 
	d="
M222.253281,55.013916 
	C218.003281,55.257843 214.835068,53.398666 212.251694,49.423637 
	C211.742645,48.265652 211.450485,47.664879 211.158676,46.671917 
	C211.826477,43.689053 212.493927,41.098373 213.161377,38.507698 
	C215.918579,37.315586 218.675751,36.123478 222.184204,34.977432 
	C230.276367,37.218811 232.307129,39.636074 232.018051,45.834690 
	C231.775757,51.029610 229.010086,53.629436 222.253281,55.013916 
M223.707016,49.054619 
	C227.494904,45.172642 226.962753,42.330482 221.672577,40.421410 
	C217.917465,40.247501 217.091171,43.013962 217.574844,45.599113 
	C218.016312,47.958664 219.193527,50.996876 223.707016,49.054619 
z"/>
<path fill="#F0EFF0" opacity="1.000000" stroke="none" 
	d="
M213.118561,38.100815 
	C212.493927,41.098373 211.826477,43.689053 210.780746,46.631317 
	C209.898529,47.000854 209.394577,47.018799 208.890640,47.036743 
	C205.489975,47.780060 202.089310,48.523376 197.966431,49.205151 
	C196.505920,49.065956 195.767639,48.988304 195.029358,48.910648 
	C195.029358,48.910648 195.084167,48.961800 195.109253,48.557320 
	C192.330719,44.137169 193.504395,40.118607 195.125580,36.099716 
	C195.125580,36.099716 195.083481,36.037724 195.429642,36.138474 
	C196.489227,35.992157 197.202637,35.745094 197.916061,35.498032 
	C201.353714,36.586975 204.791367,37.675922 208.585587,38.877819 
	C208.526932,32.897579 204.565369,30.272663 196.422668,29.831121 
	C201.686050,25.827158 210.772278,30.049133 213.118561,38.100815 
z"/>
<path fill="#EFEDED" opacity="1.000000" stroke="none" 
	d="
M111.696785,36.853973 
	C110.949211,40.038311 109.901047,43.066525 108.905365,46.497768 
	C104.874306,47.660252 100.790771,48.419701 95.979111,49.186146 
	C94.502991,49.112007 93.754990,49.030876 93.006989,48.949745 
	C93.006989,48.949741 93.007011,49.003841 92.987617,48.610229 
	C89.644508,44.132393 90.890907,40.078419 93.048897,36.030479 
	C93.048897,36.030479 93.007050,35.996143 93.385826,36.058533 
	C94.494469,35.920242 95.224327,35.719566 95.954193,35.518887 
	C99.610878,37.930855 103.426422,39.138340 107.757248,37.328793 
	C106.088264,31.988678 102.181038,29.966089 93.445786,29.860714 
	C97.739944,27.141882 105.073402,28.875746 109.050285,33.619392 
	C109.878242,34.606987 110.616562,35.669739 111.696785,36.853973 
z"/>
<path fill="#B858BB" opacity="1.000000" stroke="none" 
	d="
M50.219566,41.616302 
	C50.135258,41.947758 49.723396,42.000053 49.516258,42.010704 
	C49.309124,36.572086 49.309124,31.122818 49.309124,24.585621 
	C54.020996,27.576902 58.322548,30.307697 63.357880,33.504322 
	C58.560669,36.363586 54.432270,38.824219 50.219566,41.616302 
z"/>
<path fill="#5AC9B0" opacity="1.000000" stroke="none" 
	d="
M145.684753,67.120003 
	C146.097794,70.678429 146.896179,74.475021 145.719269,77.504150 
	C145.241882,78.732849 139.849731,79.459976 137.764267,78.369125 
	C133.113632,75.936470 135.711609,71.169601 135.341888,67.088753 
	C143.163986,67.014214 136.911331,74.888145 142.250809,76.715340 
	C142.530624,74.678551 142.583588,72.734383 143.114761,70.931084 
	C143.522964,69.545303 144.533340,68.336906 145.684753,67.120003 
z"/>
<path fill="#5AC9B0" opacity="1.000000" stroke="none" 
	d="
M179.496658,73.538895 
	C178.109451,78.538017 175.569534,80.088669 171.078003,79.087440 
	C167.160629,78.214203 166.241882,74.910530 167.838760,67.095428 
	C175.176788,66.979332 168.921600,74.859413 174.329758,76.749786 
	C174.722015,73.553284 175.089737,70.556801 175.489532,67.298820 
	C181.084427,66.303299 179.070908,70.604263 179.496658,73.538895 
z"/>
<path fill="#878282" opacity="1.000000" stroke="none" 
	d="
M173.610733,55.229118 
	C173.788284,54.845463 174.594727,54.607841 174.591309,54.382496 
	C174.464005,45.983761 174.261887,37.586163 173.714584,29.055607 
	C176.721298,27.829771 178.423355,29.066484 178.432693,32.586014 
	C178.449265,38.830532 178.395752,45.075531 178.455658,51.319519 
	C178.486542,54.539639 177.004166,55.848969 173.610733,55.229118 
z"/>
<path fill="#4FC2A8" opacity="1.000000" stroke="none" 
	d="
M119.093185,68.311554 
	C121.528259,67.538589 123.940628,66.786362 126.253044,67.020653 
	C129.525650,67.352234 131.717758,69.365791 131.741867,72.969612 
	C131.765991,76.575905 129.605042,78.500061 126.328171,79.010948 
	C124.110779,79.356659 121.795883,79.076920 119.025856,79.076920 
	C119.025856,75.324852 119.025856,72.048782 119.093185,68.311554 
M122.820923,72.581322 
	C123.419830,74.031639 124.018738,75.481964 124.617645,76.932289 
	C125.686958,75.901932 127.665482,74.829254 127.619926,73.850792 
	C127.545090,72.242943 126.157990,70.696182 125.324181,69.123665 
	C124.492081,69.986679 123.659973,70.849686 122.820923,72.581322 
z"/>
<path fill="#16C9A0" opacity="1.000000" stroke="none" 
	d="
M183.007706,74.881393 
	C183.007401,72.121788 183.007401,69.829514 183.007401,66.930328 
	C185.088776,66.930328 186.949753,66.572464 188.571823,67.041252 
	C189.919022,67.430595 192.096817,69.485527 192.011948,69.621696 
	C190.231674,72.477997 195.545822,76.328217 191.136337,78.292313 
	C188.971436,79.256592 186.078796,78.689095 183.533249,78.530388 
	C183.292984,78.515419 183.180069,76.457924 183.007706,74.881393 
z"/>
<path fill="#51CCB0" opacity="1.000000" stroke="none" 
	d="
M161.847687,78.835358 
	C160.957703,77.895973 160.029861,76.988899 159.190964,76.005920 
	C158.623718,75.341278 158.181686,74.569756 157.683655,73.846031 
	C156.996536,74.573395 156.284424,75.279007 155.628174,76.033211 
	C154.629883,77.180519 153.670288,78.361504 152.694275,79.528198 
	C152.286728,79.236977 151.879166,78.945755 151.471619,78.654533 
	C151.471619,74.895782 151.471619,71.137024 151.471619,66.370232 
	C153.199600,67.339844 154.452774,67.834732 155.433487,68.655258 
	C156.313309,69.391380 156.893494,70.485649 157.605865,71.421906 
	C158.162979,70.375755 158.627075,69.262756 159.312469,68.308769 
	C159.716568,67.746338 160.471497,67.435974 161.487595,67.533707 
	C161.886932,71.648567 161.867310,75.241966 161.847687,78.835358 
z"/>
<path fill="#BC58C0" opacity="1.000000" stroke="none" 
	d="
M66.288910,47.623344 
	C62.496861,45.929646 59.088593,44.116688 54.470921,41.660412 
	C59.134567,39.230259 62.533085,37.459347 66.672691,35.302261 
	C66.672691,39.896400 66.672691,43.700245 66.288910,47.623344 
z"/>
<path fill="#908692" opacity="1.000000" stroke="none" 
	d="
M222.541443,55.182365 
	C229.010086,53.629436 231.775757,51.029610 232.018051,45.834690 
	C232.307129,39.636074 230.276367,37.218811 222.586288,35.003166 
	C227.754684,33.398167 231.595703,35.859505 234.825836,40.512291 
	C234.980835,43.382721 234.992828,45.880939 234.984924,48.736694 
	C232.365631,53.983994 228.322220,56.072857 222.541443,55.182365 
z"/>
<path fill="#4CC6AB" opacity="1.000000" stroke="none" 
	d="
M111.180199,76.910812 
	C112.593666,77.292953 113.632706,77.599915 114.671753,77.906868 
	C114.642845,78.206818 114.613930,78.506760 114.585022,78.806709 
	C112.017212,78.806709 109.449409,78.806709 106.551971,78.806709 
	C106.551971,74.993858 106.551971,71.276352 106.551971,67.100281 
	C109.241264,67.100281 111.879478,67.100281 114.517685,67.100281 
	C114.590614,67.368698 114.663544,67.637123 114.736465,67.905540 
	C113.232422,68.483086 111.728378,69.060631 109.463699,69.930252 
	C111.145218,71.034195 112.381607,71.845901 112.423035,71.873100 
	C111.834435,73.679214 111.320107,75.257423 111.180199,76.910812 
z"/>
<path fill="#C46CC8" opacity="1.000000" stroke="none" 
	d="
M58.424995,24.084400 
	C61.074249,22.752995 63.428989,21.577980 66.305191,20.142757 
	C66.305191,23.760361 66.305191,27.050383 66.305191,30.340406 
	C65.996483,30.724409 65.687775,31.108414 65.379066,31.492418 
	C62.962872,29.075211 60.546680,26.658001 58.424995,24.084400 
z"/>
<path fill="#958585" opacity="1.000000" stroke="none" 
	d="
M131.754318,39.981522 
	C131.854324,43.197639 131.649918,46.140251 131.619812,49.197456 
	C129.436768,51.120308 127.079399,52.928562 124.364510,54.735497 
	C127.462349,52.228271 129.773361,49.344788 129.048462,44.565044 
	C128.220535,39.106098 125.381187,35.989758 119.684647,34.999413 
	C124.603325,33.437531 128.269485,35.955536 131.754318,39.981522 
z"/>
<path fill="#787578" opacity="1.000000" stroke="none" 
	d="
M258.698273,40.911011 
	C258.473053,43.617371 258.346405,45.844807 258.408600,48.335297 
	C257.978394,50.721764 257.359375,52.845177 256.342407,54.929768 
	C255.954346,46.602520 255.964233,38.314091 255.959717,29.565466 
	C256.918579,30.903591 258.266296,32.606136 258.757843,34.527691 
	C259.231171,36.378063 258.819611,38.454803 258.698273,40.911011 
z"/>
<path fill="#958585" opacity="1.000000" stroke="none" 
	d="
M151.023987,46.924934 
	C151.253189,39.227272 149.182541,36.469063 141.759872,34.994179 
	C146.996323,33.237000 150.731827,36.217640 154.468079,40.118484 
	C154.475861,42.218380 154.190857,44.144367 153.524536,46.489990 
	C152.436813,46.914726 151.730392,46.919830 151.023987,46.924934 
z"/>
<path fill="#BCB8B8" opacity="1.000000" stroke="none" 
	d="
M150.606293,46.958115 
	C151.730392,46.919830 152.436813,46.914726 153.494659,46.877525 
	C154.232498,47.898094 154.618912,48.950752 155.034286,50.326317 
	C150.935394,54.174351 146.644501,57.219513 140.439651,55.298836 
	C144.819077,55.087391 148.690765,53.742313 151.040436,48.628525 
	C148.852371,48.308350 147.182632,48.064018 145.512878,47.819687 
	C145.524261,47.543556 145.535629,47.267422 145.546997,46.991291 
	C147.094193,46.991291 148.641388,46.991291 150.606293,46.958115 
z"/>
<path fill="#988E99" opacity="1.000000" stroke="none" 
	d="
M208.793304,47.358261 
	C209.394577,47.018799 209.898529,47.000854 210.780396,47.023506 
	C211.450485,47.664879 211.742645,48.265652 212.038589,49.123459 
	C208.131653,53.417423 203.818680,56.496910 197.445251,55.208847 
	C202.151855,54.397945 206.525299,52.769482 208.793304,47.358261 
z"/>
<path fill="#C2C0C2" opacity="1.000000" stroke="none" 
	d="
M275.297974,54.993797 
	C276.276459,53.352283 277.631287,51.719330 279.880554,49.008316 
	C275.404480,49.008316 271.969666,49.008316 268.534821,49.008316 
	C268.519562,48.344604 268.504333,47.680893 268.489075,47.017181 
	C271.698639,47.017181 274.908234,47.017181 278.929199,46.998222 
	C280.447845,46.948582 281.155090,46.917900 281.862305,46.887215 
	C282.402893,51.577316 279.726349,53.814262 275.297974,54.993797 
z"/>
<path fill="#EFEDED" opacity="1.000000" stroke="none" 
	d="
M108.700867,48.862247 
	C109.356277,49.246021 109.686119,49.776726 110.069656,50.616035 
	C106.599625,52.836567 103.207542,55.096760 99.492035,56.501423 
	C97.838326,57.126617 95.532875,56.027893 93.273964,55.455425 
	C99.013596,55.298428 104.494041,54.136703 108.700867,48.862247 
z"/>
<path fill="#8B828D" opacity="1.000000" stroke="none" 
	d="
M282.005310,46.485416 
	C281.155090,46.917900 280.447845,46.948582 279.387207,46.961479 
	C278.131226,43.773300 277.228638,40.602909 276.251221,37.059326 
	C281.263580,37.808369 282.339264,39.501110 282.005310,46.485416 
z"/>
<path fill="#9DB7B1" opacity="1.000000" stroke="none" 
	d="
M162.254395,78.837677 
	C161.867310,75.241966 161.886932,71.648567 161.876923,67.609940 
	C165.445770,70.824547 164.270126,74.817169 162.254395,78.837677 
z"/>
<path fill="#C2C0C2" opacity="1.000000" stroke="none" 
	d="
M269.252991,55.344490 
	C270.415192,55.091488 271.843872,55.052502 273.696716,55.103321 
	C272.587097,55.314919 271.053253,55.436714 269.252991,55.344490 
z"/>
<path fill="#C2C0C2" opacity="1.000000" stroke="none" 
	d="
M271.921082,34.605736 
	C271.355164,34.867783 270.559692,34.934963 269.371307,34.933006 
	C269.882782,34.712868 270.787109,34.561867 271.921082,34.605736 
z"/>
<path fill="#8B828D" opacity="1.000000" stroke="none" 
	d="
M276.185242,36.528801 
	C275.842560,36.637875 275.507050,36.403332 275.087036,35.859608 
	C275.399170,35.762012 275.795776,35.973602 276.185242,36.528801 
z"/>
<path fill="#F0EFF0" opacity="1.000000" stroke="none" 
	d="
M246.039001,40.769699 
	C250.951630,43.390453 251.156281,45.779072 246.194855,48.853420 
	C243.026398,45.858158 243.894806,43.281277 246.039001,40.769699 
z"/>
<path fill="#908692" opacity="1.000000" stroke="none" 
	d="
M245.787628,40.559586 
	C243.894806,43.281277 243.026398,45.858158 245.835449,48.928383 
	C243.023270,50.055923 241.393646,48.725861 241.031937,45.810379 
	C240.620621,42.495037 241.975174,40.470444 245.787628,40.559586 
z"/>
<path fill="#EFEDED" opacity="1.000000" stroke="none" 
	d="
M164.976410,40.827118 
	C166.259064,42.010311 168.562637,43.187386 168.569778,44.378216 
	C168.578995,45.917862 166.754364,47.468491 165.025162,48.978996 
	C163.897736,48.937489 163.464523,48.931381 163.031296,48.925270 
	C163.031296,48.925270 163.014664,48.998528 163.106873,48.535080 
	C163.156647,45.732128 163.114197,43.392624 163.071747,41.053120 
	C163.071747,41.053120 163.015625,41.002438 163.350342,41.144478 
	C164.115509,41.133385 164.545959,40.980255 164.976410,40.827118 
z"/>
<path fill="#887676" opacity="1.000000" stroke="none" 
	d="
M162.691010,41.052383 
	C163.114197,43.392624 163.156647,45.732128 163.134491,48.509598 
	C159.033981,46.831684 158.807648,44.479099 162.691010,41.052383 
z"/>
<path fill="#887676" opacity="1.000000" stroke="none" 
	d="
M164.818695,40.609795 
	C164.545959,40.980255 164.115509,41.133385 163.358002,41.181503 
	C163.574295,40.848480 164.117645,40.620472 164.818695,40.609795 
z"/>
<path fill="#887676" opacity="1.000000" stroke="none" 
	d="
M163.116608,49.181999 
	C163.464523,48.931381 163.897736,48.937489 164.653107,49.059269 
	C164.384125,49.262871 163.793030,49.350803 163.116608,49.181999 
z"/>
<path fill="#958585" opacity="1.000000" stroke="none" 
	d="
M92.664261,35.990337 
	C90.890907,40.078419 89.644508,44.132393 93.008530,48.593071 
	C89.218712,49.215652 88.275810,46.527824 88.069672,43.620197 
	C87.835060,40.310741 87.885880,36.854961 92.664261,35.990337 
z"/>
<path fill="#958585" opacity="1.000000" stroke="none" 
	d="
M95.710075,35.362717 
	C95.224327,35.719566 94.494469,35.920242 93.385788,36.085594 
	C93.826637,35.769028 94.646301,35.487785 95.710075,35.362717 
z"/>
<path fill="#958585" opacity="1.000000" stroke="none" 
	d="
M93.127838,49.218208 
	C93.754990,49.030876 94.502991,49.112007 95.602608,49.337006 
	C95.052376,49.482800 94.150536,49.484734 93.127838,49.218208 
z"/>
<path fill="#888089" opacity="1.000000" stroke="none" 
	d="
M194.754288,36.080559 
	C193.504395,40.118607 192.330719,44.137169 195.130310,48.526314 
	C193.438736,46.973515 190.410217,45.049519 190.406952,43.120411 
	C190.402985,40.769646 192.943207,38.414597 194.754288,36.080559 
z"/>
<path fill="#888089" opacity="1.000000" stroke="none" 
	d="
M195.160736,49.166908 
	C195.767639,48.988304 196.505920,49.065956 197.580078,49.322716 
	C197.041351,49.475601 196.166733,49.449383 195.160736,49.166908 
z"/>
<path fill="#888089" opacity="1.000000" stroke="none" 
	d="
M197.668854,35.357571 
	C197.202637,35.745094 196.489227,35.992157 195.402573,36.164375 
	C195.826782,35.798729 196.624207,35.507919 197.668854,35.357571 
z"/>
<path fill="#EDE7EE" opacity="1.000000" stroke="none" 
	d="
M222.172592,40.859417 
	C226.962753,42.330482 227.494904,45.172642 223.036591,48.927734 
	C219.821609,46.214149 220.538330,43.547966 222.172592,40.859417 
z"/>
<path fill="#888089" opacity="1.000000" stroke="none" 
	d="
M221.922577,40.640411 
	C220.538330,43.547966 219.821609,46.214149 222.670563,49.049644 
	C219.193527,50.996876 218.016312,47.958664 217.574844,45.599113 
	C217.091171,43.013962 217.917465,40.247501 221.922577,40.640411 
z"/>
<path fill="#EDF4F3" opacity="1.000000" stroke="none" 
	d="
M122.824402,72.147011 
	C123.659973,70.849686 124.492081,69.986679 125.324188,69.123665 
	C126.157990,70.696182 127.545090,72.242943 127.619926,73.850792 
	C127.665482,74.829254 125.686958,75.901932 124.617645,76.932289 
	C124.018738,75.481964 123.419830,74.031639 122.824402,72.147011 
z"/>
</svg>